<svg width="90" height="90" viewBox="0 0 90 90" fill="none" xmlns="http://www.w3.org/2000/svg">
<path d="M4.07031 4.4541H85.8308V85.459H4.07031V4.4541Z" fill="url(#paint0_radial_119_2373)"/>
<path d="M4.07104 4.45367H85.8316V85.4586H4.07104V4.45367ZM0.355469 89.2423H89.565V0.669922H0.355469V89.2423ZM63.4667 43.3644C65.3602 43.3644 66.039 43.3644 66.2176 43.2916C66.2176 43.0188 66.2891 42.8369 66.2891 42.6549C66.2891 40.6175 65.3244 36.8338 61.466 36.8338C57.8933 36.8338 56.3749 40.0172 55.9998 43.3826H63.4667V43.3644ZM55.9283 48.5489C55.9998 53.6606 58.3756 57.0987 64.0383 57.0987C66.2355 57.0987 68.129 56.7894 70.094 55.9344C70.3619 55.8253 70.5405 55.8617 70.5405 56.2073V60.937C70.5405 61.319 70.4334 61.5009 70.1654 61.701C68.2004 62.6833 65.7353 63.1381 62.6985 63.1381C52.8916 63.1381 49.2117 55.7525 49.2117 47.5483C49.2117 38.6165 53.749 31.3037 61.7339 31.3037C69.8439 31.3037 72.6663 38.2345 72.6663 43.8737C72.6663 45.6929 72.5591 47.1663 72.3626 47.894C72.2912 48.2032 72.184 48.3124 71.8803 48.3851C71.13 48.4943 68.9507 48.658 65.6817 48.658H55.9462V48.5489H55.9283ZM35.9928 44.6923C34.9568 40.4902 32.4202 31.3401 31.4913 26.9015H31.4198C30.6338 31.3219 28.5974 38.8166 27.079 44.6923H35.9928ZM25.5606 50.8227L22.6311 62.1376C22.5596 62.4468 22.4524 62.556 22.0773 62.556H16.5932C16.2181 62.556 16.1467 62.4468 16.2181 61.9921L26.7754 24.4093C26.954 23.7362 27.079 23.1905 27.1505 21.2986C27.1505 21.0257 27.2577 20.9166 27.4542 20.9166H35.2604C35.5284 20.9166 35.6356 20.9894 35.707 21.2986L47.5147 62.0648C47.5862 62.3741 47.5147 62.556 47.211 62.556H41.0839C40.7802 62.556 40.6016 62.4468 40.5301 62.174L37.4755 50.8227H25.5606Z" fill="#D8A1FF"/>
<defs>
<radialGradient id="paint0_radial_119_2373" cx="0" cy="0" r="1" gradientUnits="userSpaceOnUse" gradientTransform="translate(31.0228 22.6153) scale(62.1407 61.2673)">
<stop stop-color="#442F55" stop-opacity="0.98"/>
<stop offset="1" stop-color="#12002C"/>
</radialGradient>
</defs>
</svg>
