<svg width="59" height="90" viewBox="0 0 59 90" fill="none" xmlns="http://www.w3.org/2000/svg">
<g clip-path="url(#clip0_119_2384)">
<path d="M15.0508 89.6602C23.0893 89.6602 29.6095 83.0205 29.6095 74.8345V60.0088H15.0508C7.01232 60.0088 0.492188 66.6485 0.492188 74.8345C0.492188 83.0205 7.01232 89.6602 15.0508 89.6602Z" fill="#0ACF83"/>
<path d="M0.492188 45.1655C0.492188 36.9796 7.01232 30.3398 15.0508 30.3398H29.6095V60.0094H15.0508C7.01232 59.9912 0.492188 53.3515 0.492188 45.1655Z" fill="#A259FF"/>
<path d="M0.492188 15.4956C0.492188 7.30965 7.01232 0.669922 15.0508 0.669922H29.6095V30.3395H15.0508C7.01232 30.3395 0.492188 23.6816 0.492188 15.4956Z" fill="#F24E1E"/>
<path d="M29.627 0.669922H44.1856C52.2241 0.669922 58.7442 7.30965 58.7442 15.4956C58.7442 23.6816 52.2241 30.3213 44.1856 30.3213H29.627V0.669922Z" fill="#FF7262"/>
<path d="M58.7442 45.1655C58.7442 53.3515 52.2241 59.9913 44.1856 59.9913C36.1471 59.9913 29.627 53.3515 29.627 45.1655C29.627 36.9796 36.1471 30.3398 44.1856 30.3398C52.2241 30.3398 58.7442 36.9796 58.7442 45.1655Z" fill="#1ABCFE"/>
</g>
<defs>
<clipPath id="clip0_119_2384">
<rect width="58.2524" height="88.9906" fill="white" transform="translate(0.492188 0.669922)"/>
</clipPath>
</defs>
</svg>
